# xmcd
#
# Track frame offsets:
#	150
#	15846
#	32239
#	45456
#	58697
#	72863
#	86190
#	102240
#
# Disc length: 1547 seconds
#
# Revision: 1
# Processed by: cddbd v1.5.2PL0 Copyright (c) Steve Scherf et al.
# Submitted via: audiograbber 1.83.01
#
DISCID=5f060908
DTITLE=Dan Seals - My Baby's Got Good Timing
DYEAR=1994
DGENRE=Country
TTITLE0=My Baby's Got Good Timing
TTITLE1=My Old Yellow Car
TTITLE2=You Really Go for the Heart
TTITLE3=She Thinks I Still Care
TTITLE4=God Must Be a Cowboy
TTITLE5=Everybody's Dream Girl
TTITLE6=After You
TTITLE7=I Won't Be Blue Anymore
EXTD=
EXTT0=
EXTT1=
EXTT2=
EXTT3=
EXTT4=
EXTT5=
EXTT6=
EXTT7=
PLAYORDER=
